<?xml version="1.0" encoding="UTF-8" standalone="no"?>
<svg width="1226px" height="351px" viewBox="0 0 1226 351" version="1.1" xmlns="http://www.w3.org/2000/svg" xmlns:xlink="http://www.w3.org/1999/xlink" xmlns:sketch="http://www.bohemiancoding.com/sketch/ns">
    <!-- Generator: Sketch 3.5.2 (25235) - http://www.bohemiancoding.com/sketch -->
    <title>agrista-md</title>
    <desc>Created with Sketch.</desc>
    <defs></defs>
    <g id="Page-1" stroke="none" stroke-width="1" fill="none" fill-rule="evenodd" sketch:type="MSPage">
        <g id="agrista-md" sketch:type="MSLayerGroup">
            <g id="brown-800" transform="translate(225.000000, 275.000000)" fill="#362320" sketch:type="MSShapeGroup">
                <circle id="Oval" cx="12.567" cy="13.133" r="12.5"></circle>
                <circle id="Oval" cx="37.567" cy="13.133" r="12.5"></circle>
                <circle id="Oval" cx="12.567" cy="38.133" r="12.5"></circle>
                <circle id="Oval" cx="37.567" cy="38.133" r="12.5"></circle>
                <circle id="Oval" cx="37.567" cy="63.133" r="12.5"></circle>
                <circle id="Oval" cx="62.567" cy="38.133" r="12.5"></circle>
                <circle id="Oval" cx="87.567" cy="38.133" r="12.5"></circle>
                <circle id="Oval" cx="62.567" cy="63.133" r="12.5"></circle>
                <circle id="Oval" cx="87.567" cy="63.133" r="12.5"></circle>
                <circle id="Oval" cx="112.567" cy="38.133" r="12.5"></circle>
                <circle id="Oval" cx="112.567" cy="63.133" r="12.5"></circle>
                <circle id="Oval" cx="137.567" cy="38.133" r="12.5"></circle>
                <circle id="Oval" cx="137.567" cy="63.133" r="12.5"></circle>
                <circle id="Oval" cx="162.567" cy="38.133" r="12.5"></circle>
                <circle id="Oval" cx="162.567" cy="13.133" r="12.5"></circle>
                <circle id="Oval" cx="187.567" cy="13.133" r="12.5"></circle>
            </g>
            <g id="brown-700" transform="translate(25.000000, 225.000000)" fill="#533830" sketch:type="MSShapeGroup">
                <circle id="Oval" cx="12.567" cy="13.133" r="12.5"></circle>
                <circle id="Oval" cx="37.567" cy="13.133" r="12.5"></circle>
                <circle id="Oval" cx="62.567" cy="13.133" r="12.5"></circle>
                <circle id="Oval" cx="87.567" cy="13.133" r="12.5"></circle>
                <circle id="Oval" cx="112.567" cy="13.133" r="12.5"></circle>
                <circle id="Oval" cx="137.567" cy="13.133" r="12.5"></circle>
                <circle id="Oval" cx="162.567" cy="13.133" r="12.5"></circle>
                <circle id="Oval" cx="37.567" cy="38.133" r="12.5"></circle>
                <circle id="Oval" cx="62.567" cy="38.133" r="12.5"></circle>
                <circle id="Oval" cx="87.567" cy="38.133" r="12.5"></circle>
                <circle id="Oval" cx="137.567" cy="38.133" r="12.5"></circle>
                <circle id="Oval" cx="162.567" cy="38.133" r="12.5"></circle>
                <circle id="Oval" cx="237.567" cy="13.133" r="12.5"></circle>
                <circle id="Oval" cx="262.567" cy="13.133" r="12.5"></circle>
                <circle id="Oval" cx="287.567" cy="13.133" r="12.5"></circle>
                <circle id="Oval" cx="312.567" cy="13.133" r="12.5"></circle>
                <circle id="Oval" cx="337.567" cy="13.133" r="12.5"></circle>
                <circle id="Oval" cx="362.567" cy="13.133" r="12.5"></circle>
                <circle id="Oval" cx="387.567" cy="13.133" r="12.5"></circle>
                <circle id="Oval" cx="262.567" cy="38.133" r="12.5"></circle>
                <circle id="Oval" cx="287.567" cy="38.133" r="12.5"></circle>
                <circle id="Oval" cx="312.567" cy="38.133" r="12.5"></circle>
                <circle id="Oval" cx="362.567" cy="38.133" r="12.5"></circle>
                <circle id="Oval" cx="387.567" cy="38.133" r="12.5"></circle>
                <circle id="Oval" cx="437.567" cy="13.133" r="12.5"></circle>
                <circle id="Oval" cx="462.567" cy="13.133" r="12.5"></circle>
                <circle id="Oval" cx="437.567" cy="38.133" r="12.5"></circle>
                <circle id="Oval" cx="462.567" cy="38.133" r="12.5"></circle>
                <circle id="Oval" cx="587.567" cy="13.133" r="12.5"></circle>
                <circle id="Oval" cx="612.567" cy="13.133" r="12.5"></circle>
                <circle id="Oval" cx="587.567" cy="38.133" r="12.5"></circle>
                <circle id="Oval" cx="612.567" cy="38.133" r="12.5"></circle>
                <circle id="Oval" cx="662.567" cy="13.133" r="12.5"></circle>
                <circle id="Oval" cx="687.567" cy="13.133" r="12.5"></circle>
                <circle id="Oval" cx="687.567" cy="38.133" r="12.5"></circle>
                <circle id="Oval" cx="787.567" cy="13.133" r="12.5"></circle>
                <circle id="Oval" cx="812.567" cy="13.133" r="12.5"></circle>
                <circle id="Oval" cx="712.567" cy="13.133" r="12.5"></circle>
                <circle id="Oval" cx="737.567" cy="13.133" r="12.5"></circle>
                <circle id="Oval" cx="762.567" cy="13.133" r="12.5"></circle>
                <circle id="Oval" cx="712.567" cy="38.133" r="12.5"></circle>
                <circle id="Oval" cx="737.567" cy="38.133" r="12.5"></circle>
                <circle id="Oval" cx="762.567" cy="38.133" r="12.5"></circle>
                <circle id="Oval" cx="787.567" cy="38.133" r="12.5"></circle>
                <circle id="Oval" cx="887.567" cy="13.133" r="12.5"></circle>
                <circle id="Oval" cx="912.567" cy="13.133" r="12.5"></circle>
                <circle id="Oval" cx="912.567" cy="38.133" r="12.5"></circle>
                <circle id="Oval" cx="937.567" cy="13.133" r="12.5"></circle>
                <circle id="Oval" cx="962.567" cy="13.133" r="12.5"></circle>
                <circle id="Oval" cx="937.567" cy="38.133" r="12.5"></circle>
                <circle id="Oval" cx="962.567" cy="38.133" r="12.5"></circle>
                <circle id="Oval" cx="1037.567" cy="13.133" r="12.5"></circle>
                <circle id="Oval" cx="1062.567" cy="13.133" r="12.5"></circle>
                <circle id="Oval" cx="1087.567" cy="13.133" r="12.5"></circle>
                <circle id="Oval" cx="1112.567" cy="13.133" r="12.5"></circle>
                <circle id="Oval" cx="1137.567" cy="13.133" r="12.5"></circle>
                <circle id="Oval" cx="1162.567" cy="13.133" r="12.5"></circle>
                <circle id="Oval" cx="1187.567" cy="13.133" r="12.5"></circle>
                <circle id="Oval" cx="1062.567" cy="38.133" r="12.5"></circle>
                <circle id="Oval" cx="1087.567" cy="38.133" r="12.5"></circle>
                <circle id="Oval" cx="1112.567" cy="38.133" r="12.5"></circle>
                <circle id="Oval" cx="1162.567" cy="38.133" r="12.5"></circle>
                <circle id="Oval" cx="1187.567" cy="38.133" r="12.5"></circle>
            </g>
            <g id="brown-500" transform="translate(0.000000, 200.000000)" fill="#6E4B3F" sketch:type="MSShapeGroup">
                <circle id="Oval" cx="12.567" cy="13.133" r="12.5"></circle>
                <circle id="Oval" cx="37.567" cy="13.133" r="12.5"></circle>
                <circle id="Oval" cx="62.567" cy="13.133" r="12.5"></circle>
                <circle id="Oval" cx="137.567" cy="13.133" r="12.5"></circle>
                <circle id="Oval" cx="162.567" cy="13.133" r="12.5"></circle>
                <circle id="Oval" cx="187.567" cy="13.133" r="12.5"></circle>
                <circle id="Oval" cx="237.567" cy="13.133" r="12.5"></circle>
                <circle id="Oval" cx="262.567" cy="13.133" r="12.5"></circle>
                <circle id="Oval" cx="287.567" cy="13.133" r="12.5"></circle>
                <circle id="Oval" cx="362.567" cy="13.133" r="12.5"></circle>
                <circle id="Oval" cx="387.567" cy="13.133" r="12.5"></circle>
                <circle id="Oval" cx="412.567" cy="13.133" r="12.5"></circle>
                <circle id="Oval" cx="462.567" cy="13.133" r="12.5"></circle>
                <circle id="Oval" cx="487.567" cy="13.133" r="12.5"></circle>
                <circle id="Oval" cx="612.567" cy="13.133" r="12.5"></circle>
                <circle id="Oval" cx="637.567" cy="13.133" r="12.5"></circle>
                <circle id="Oval" cx="687.567" cy="13.133" r="12.5"></circle>
                <circle id="Oval" cx="712.567" cy="13.133" r="12.5"></circle>
                <circle id="Oval" cx="812.567" cy="13.133" r="12.5"></circle>
                <circle id="Oval" cx="837.567" cy="13.133" r="12.5"></circle>
                <circle id="Oval" cx="912.567" cy="13.133" r="12.5"></circle>
                <circle id="Oval" cx="937.567" cy="13.133" r="12.5"></circle>
                <circle id="Oval" cx="1037.567" cy="13.133" r="12.5"></circle>
                <circle id="Oval" cx="1062.567" cy="13.133" r="12.5"></circle>
                <circle id="Oval" cx="1087.567" cy="13.133" r="12.5"></circle>
                <circle id="Oval" cx="1162.567" cy="13.133" r="12.5"></circle>
                <circle id="Oval" cx="1187.567" cy="13.133" r="12.5"></circle>
                <circle id="Oval" cx="1212.567" cy="13.133" r="12.5"></circle>
            </g>
            <g id="light-green-700" fill="#689F38" sketch:type="MSShapeGroup">
                <circle id="Oval" cx="612.567" cy="13.133" r="12.5"></circle>
                <circle id="Oval" cx="612.567" cy="38.133" r="12.5"></circle>
                <circle id="Oval" cx="637.567" cy="13.133" r="12.5"></circle>
                <circle id="Oval" cx="637.567" cy="38.133" r="12.5"></circle>
                <circle id="Oval" cx="612.567" cy="88.133" r="12.5"></circle>
                <circle id="Oval" cx="637.567" cy="88.133" r="12.5"></circle>
                <circle id="Oval" cx="612.567" cy="113.133" r="12.5"></circle>
                <circle id="Oval" cx="637.567" cy="113.133" r="12.5"></circle>
                <circle id="Oval" cx="612.567" cy="138.133" r="12.5"></circle>
                <circle id="Oval" cx="637.567" cy="138.133" r="12.5"></circle>
                <circle id="Oval" cx="612.567" cy="163.133" r="12.5"></circle>
                <circle id="Oval" cx="637.567" cy="163.133" r="12.5"></circle>
                <circle id="Oval" cx="612.567" cy="188.133" r="12.5"></circle>
                <circle id="Oval" cx="637.567" cy="188.133" r="12.5"></circle>
                <circle id="Oval" cx="537.567" cy="88.133" r="12.5"></circle>
                <circle id="Oval" cx="562.567" cy="88.133" r="12.5"></circle>
                <circle id="Oval" cx="537.567" cy="113.133" r="12.5"></circle>
                <circle id="Oval" cx="562.567" cy="113.133" r="12.5"></circle>
                <circle id="Oval" cx="512.567" cy="113.133" r="12.5"></circle>
                <circle id="Oval" cx="512.567" cy="138.133" r="12.5"></circle>
                <circle id="Oval" cx="462.567" cy="88.133" r="12.5"></circle>
                <circle id="Oval" cx="487.567" cy="88.133" r="12.5"></circle>
                <circle id="Oval" cx="462.567" cy="113.133" r="12.5"></circle>
                <circle id="Oval" cx="487.567" cy="113.133" r="12.5"></circle>
                <circle id="Oval" cx="462.567" cy="138.133" r="12.5"></circle>
                <circle id="Oval" cx="487.567" cy="138.133" r="12.5"></circle>
                <circle id="Oval" cx="462.567" cy="163.133" r="12.5"></circle>
                <circle id="Oval" cx="487.567" cy="163.133" r="12.5"></circle>
                <circle id="Oval" cx="462.567" cy="188.133" r="12.5"></circle>
                <circle id="Oval" cx="487.567" cy="188.133" r="12.5"></circle>
                <circle id="Oval" cx="412.567" cy="88.133" r="12.5"></circle>
                <circle id="Oval" cx="387.567" cy="113.133" r="12.5"></circle>
                <circle id="Oval" cx="412.567" cy="113.133" r="12.5"></circle>
                <circle id="Oval" cx="387.567" cy="138.133" r="12.5"></circle>
                <circle id="Oval" cx="412.567" cy="138.133" r="12.5"></circle>
                <circle id="Oval" cx="387.567" cy="163.133" r="12.5"></circle>
                <circle id="Oval" cx="412.567" cy="163.133" r="12.5"></circle>
                <circle id="Oval" cx="387.567" cy="188.133" r="12.5"></circle>
                <circle id="Oval" cx="412.567" cy="188.133" r="12.5"></circle>
                <circle id="Oval" cx="362.567" cy="113.133" r="12.5"></circle>
                <circle id="Oval" cx="362.567" cy="138.133" r="12.5"></circle>
                <circle id="Oval" cx="337.567" cy="88.133" r="12.5"></circle>
                <circle id="Oval" cx="312.567" cy="88.133" r="12.5"></circle>
                <circle id="Oval" cx="287.567" cy="88.133" r="12.5"></circle>
                <circle id="Oval" cx="337.567" cy="113.133" r="12.5"></circle>
                <circle id="Oval" cx="287.567" cy="113.133" r="12.5"></circle>
                <circle id="Oval" cx="262.567" cy="113.133" r="12.5"></circle>
                <circle id="Oval" cx="237.567" cy="138.133" r="12.5"></circle>
                <circle id="Oval" cx="262.567" cy="138.133" r="12.5"></circle>
                <circle id="Oval" cx="287.567" cy="138.133" r="12.5"></circle>
                <circle id="Oval" cx="237.567" cy="163.133" r="12.5"></circle>
                <circle id="Oval" cx="262.567" cy="163.133" r="12.5"></circle>
                <circle id="Oval" cx="237.567" cy="188.133" r="12.5"></circle>
                <circle id="Oval" cx="262.567" cy="188.133" r="12.5"></circle>
                <circle id="Oval" cx="162.567" cy="88.133" r="12.5"></circle>
                <circle id="Oval" cx="187.567" cy="88.133" r="12.5"></circle>
                <circle id="Oval" cx="162.567" cy="113.133" r="12.5"></circle>
                <circle id="Oval" cx="187.567" cy="113.133" r="12.5"></circle>
                <circle id="Oval" cx="162.567" cy="138.133" r="12.5"></circle>
                <circle id="Oval" cx="187.567" cy="138.133" r="12.5"></circle>
                <circle id="Oval" cx="162.567" cy="163.133" r="12.5"></circle>
                <circle id="Oval" cx="187.567" cy="163.133" r="12.5"></circle>
                <circle id="Oval" cx="162.567" cy="188.133" r="12.5"></circle>
                <circle id="Oval" cx="187.567" cy="188.133" r="12.5"></circle>
                <circle id="Oval" cx="137.567" cy="113.133" r="12.5"></circle>
                <circle id="Oval" cx="137.567" cy="138.133" r="12.5"></circle>
                <circle id="Oval" cx="112.567" cy="88.133" r="12.5"></circle>
                <circle id="Oval" cx="87.567" cy="88.133" r="12.5"></circle>
                <circle id="Oval" cx="62.567" cy="88.133" r="12.5"></circle>
                <circle id="Oval" cx="112.567" cy="113.133" r="12.5"></circle>
                <circle id="Oval" cx="87.567" cy="113.133" r="12.5"></circle>
                <circle id="Oval" cx="62.567" cy="113.133" r="12.5"></circle>
                <circle id="Oval" cx="37.567" cy="113.133" r="12.5"></circle>
                <circle id="Oval" cx="12.567" cy="138.133" r="12.5"></circle>
                <circle id="Oval" cx="37.567" cy="138.133" r="12.5"></circle>
                <circle id="Oval" cx="12.567" cy="163.133" r="12.5"></circle>
                <circle id="Oval" cx="37.567" cy="163.133" r="12.5"></circle>
                <circle id="Oval" cx="12.567" cy="188.133" r="12.5"></circle>
                <circle id="Oval" cx="37.567" cy="188.133" r="12.5"></circle>
                <circle id="Oval" cx="737.567" cy="88.133" r="12.5"></circle>
                <circle id="Oval" cx="712.567" cy="88.133" r="12.5"></circle>
                <circle id="Oval" cx="762.567" cy="88.133" r="12.5"></circle>
                <circle id="Oval" cx="787.567" cy="88.133" r="12.5"></circle>
                <circle id="Oval" cx="812.567" cy="88.133" r="12.5"></circle>
                <circle id="Oval" cx="687.567" cy="113.133" r="12.5"></circle>
                <circle id="Oval" cx="712.567" cy="113.133" r="12.5"></circle>
                <circle id="Oval" cx="737.567" cy="113.133" r="12.5"></circle>
                <circle id="Oval" cx="762.567" cy="113.133" r="12.5"></circle>
                <circle id="Oval" cx="787.567" cy="113.133" r="12.5"></circle>
                <circle id="Oval" cx="812.567" cy="113.133" r="12.5"></circle>
                <circle id="Oval" cx="837.567" cy="113.133" r="12.5"></circle>
                <circle id="Oval" cx="687.567" cy="138.133" r="12.5"></circle>
                <circle id="Oval" cx="712.567" cy="138.133" r="12.5"></circle>
                <circle id="Oval" cx="812.567" cy="138.133" r="12.5"></circle>
                <circle id="Oval" cx="837.567" cy="138.133" r="12.5"></circle>
                <circle id="Oval" cx="712.567" cy="163.133" r="12.5"></circle>
                <circle id="Oval" cx="737.567" cy="163.133" r="12.5"></circle>
                <circle id="Oval" cx="762.567" cy="163.133" r="12.5"></circle>
                <circle id="Oval" cx="787.567" cy="163.133" r="12.5"></circle>
                <circle id="Oval" cx="737.567" cy="188.133" r="12.5"></circle>
                <circle id="Oval" cx="762.567" cy="188.133" r="12.5"></circle>
                <circle id="Oval" cx="787.567" cy="188.133" r="12.5"></circle>
                <circle id="Oval" cx="812.567" cy="188.133" r="12.5"></circle>
                <circle id="Oval" cx="912.567" cy="13.133" r="12.5"></circle>
                <circle id="Oval" cx="937.567" cy="13.133" r="12.5"></circle>
                <circle id="Oval" cx="912.567" cy="38.133" r="12.5"></circle>
                <circle id="Oval" cx="937.567" cy="38.133" r="12.5"></circle>
                <circle id="Oval" cx="912.567" cy="63.133" r="12.5"></circle>
                <circle id="Oval" cx="937.567" cy="63.133" r="12.5"></circle>
                <circle id="Oval" cx="912.567" cy="88.133" r="12.5"></circle>
                <circle id="Oval" cx="937.567" cy="88.133" r="12.5"></circle>
                <circle id="Oval" cx="912.567" cy="113.133" r="12.5"></circle>
                <circle id="Oval" cx="937.567" cy="113.133" r="12.5"></circle>
                <circle id="Oval" cx="912.567" cy="138.133" r="12.5"></circle>
                <circle id="Oval" cx="937.567" cy="138.133" r="12.5"></circle>
                <circle id="Oval" cx="912.567" cy="163.133" r="12.5"></circle>
                <circle id="Oval" cx="937.567" cy="163.133" r="12.5"></circle>
                <circle id="Oval" cx="912.567" cy="188.133" r="12.5"></circle>
                <circle id="Oval" cx="937.567" cy="188.133" r="12.5"></circle>
                <circle id="Oval" cx="887.567" cy="88.133" r="12.5"></circle>
                <circle id="Oval" cx="887.567" cy="113.133" r="12.5"></circle>
                <circle id="Oval" cx="962.567" cy="88.133" r="12.5"></circle>
                <circle id="Oval" cx="987.567" cy="88.133" r="12.5"></circle>
                <circle id="Oval" cx="962.567" cy="113.133" r="12.5"></circle>
                <circle id="Oval" cx="987.567" cy="113.133" r="12.5"></circle>
                <circle id="Oval" cx="1187.567" cy="88.133" r="12.5"></circle>
                <circle id="Oval" cx="1212.567" cy="88.133" r="12.5"></circle>
                <circle id="Oval" cx="1187.567" cy="113.133" r="12.5"></circle>
                <circle id="Oval" cx="1212.567" cy="113.133" r="12.5"></circle>
                <circle id="Oval" cx="1187.567" cy="138.133" r="12.5"></circle>
                <circle id="Oval" cx="1212.567" cy="138.133" r="12.5"></circle>
                <circle id="Oval" cx="1187.567" cy="163.133" r="12.5"></circle>
                <circle id="Oval" cx="1212.567" cy="163.133" r="12.5"></circle>
                <circle id="Oval" cx="1187.567" cy="188.133" r="12.5"></circle>
                <circle id="Oval" cx="1212.567" cy="188.133" r="12.5"></circle>
                <circle id="Oval" cx="1162.567" cy="113.133" r="12.5"></circle>
                <circle id="Oval" cx="1162.567" cy="138.133" r="12.5"></circle>
                <circle id="Oval" cx="1137.567" cy="88.133" r="12.5"></circle>
                <circle id="Oval" cx="1112.567" cy="88.133" r="12.5"></circle>
                <circle id="Oval" cx="1087.567" cy="88.133" r="12.5"></circle>
                <circle id="Oval" cx="1137.567" cy="113.133" r="12.5"></circle>
                <circle id="Oval" cx="1112.567" cy="113.133" r="12.5"></circle>
                <circle id="Oval" cx="1087.567" cy="113.133" r="12.5"></circle>
                <circle id="Oval" cx="1062.567" cy="113.133" r="12.5"></circle>
                <circle id="Oval" cx="1037.567" cy="138.133" r="12.5"></circle>
                <circle id="Oval" cx="1062.567" cy="138.133" r="12.5"></circle>
                <circle id="Oval" cx="1087.567" cy="138.133" r="12.5"></circle>
                <circle id="Oval" cx="1037.567" cy="163.133" r="12.5"></circle>
                <circle id="Oval" cx="1062.567" cy="163.133" r="12.5"></circle>
                <circle id="Oval" cx="1037.567" cy="188.133" r="12.5"></circle>
                <circle id="Oval" cx="1062.567" cy="188.133" r="12.5"></circle>
                <circle id="Oval" cx="387.567" cy="88.133" r="12.5"></circle>
                <circle id="Oval" cx="312.567" cy="113.133" r="12.5"></circle>
                <circle id="Oval" cx="62.567" cy="138.133" r="12.5"></circle>
            </g>
        </g>
    </g>
</svg>